<?xml version="1.0" standalone="no"?>
<!DOCTYPE svg PUBLIC "-//W3C//DTD SVG 20010904//EN" "http://www.w3.org/TR/2001/REC-SVG-20010904/DTD/svg10.dtd">
<!-- Created using Karbon, part of Calligra: http://www.calligra.org/karbon -->
<svg xmlns="http://www.w3.org/2000/svg" xmlns:xlink="http://www.w3.org/1999/xlink" width="566.93pt" height="566.93pt">
<defs/>
<g id="layer0">
  <path id="shape0" transform="translate(48.5606, 232.898)" fill="#ff0000" d="M15.8232 24.8169C21.0976 33.0892 26.372 41.3615 31.6464 49.6338C30.7596 56.751 30.9117 64.0963 30.6208 71.2404C29.6593 94.8548 29.9037 118.498 30.1487 142.123C30.318 158.446 30.3501 174.771 30.7792 191.089C31.1683 205.887 31.6199 219.092 32.9821 233.267C33.4298 237.927 33.9778 242.656 34.5143 247.314C34.6123 248.164 35.1992 249.081 34.8185 249.864C34.3135 250.902 33.5661 247.9 32.9399 246.918C32.3431 245.982 31.7463 245.045 31.1494 244.109C29.0165 240.764 26.8836 237.419 24.7506 234.074C20.201 226.938 15.6514 219.803 11.1018 212.667C9.35026 209.92 5.68266 205.935 4.76175 202.723C4.16806 200.653 4.155 195.484 4.07971 194.417C0.95708 150.134 2.16538 105.641 1.77396 61.2942C1.59482 40.9981 1.98615 20.2574 1.13737e-14 -1.74688e-14C2.0648 2.36692 3.49085 5.47498 5.14177 8.06427C8.70226 13.6485 12.2627 19.2327 15.8232 24.8169Z"/>
  <path id="shape1" transform="translate(0.466914, 210.265)" fill="#ff0000" d="M15.8032 43.5855C10.5354 35.3237 5.26773 27.0619 0 18.8001C28.2694 16.7529 56.0042 10.2502 83.7436 5.47714C98.5289 2.93306 114.53 -1.05579 129.761 0.215378C146.393 1.60341 162.585 11.4277 173.7 22.1162C180.099 28.2705 185.11 34.6793 189.525 42.0397L219.035 88.3223C225.974 104.882 230.86 122.408 225.085 139.923C221.538 150.681 213.05 159.964 205.251 168.463C190.348 184.701 174.879 200.621 157.649 214.875C143.693 226.419 129.536 233.336 111.616 238.683C108.111 239.729 104.043 240.481 100.442 241.125C98.2367 241.519 95.8745 242.965 93.8009 242.181C92.6829 241.758 92.5891 240.28 91.9833 239.33C90.5443 237.073 89.1054 234.816 87.6665 232.56C82.0622 223.77 76.458 214.98 70.8537 206.191C69.4148 203.934 67.9758 201.677 66.5369 199.42C65.931 198.47 64.0724 197.497 64.7193 196.57C65.0693 196.068 66.0187 196.409 66.6659 196.314C70.1831 195.798 73.7921 195.278 77.2499 194.508C88.2934 192.047 98.5482 187.068 108.243 181.833C117.701 176.726 126.178 170.023 134.381 163.428C151.018 150.052 166.75 136.097 179.931 119.784C186.143 112.096 193.33 103.388 195.695 93.8671C200.247 75.545 196.95 59.3432 189.525 42.0397L219.035 88.3223C214.628 80.9692 209.483 74.3832 203.117 68.266C198.769 64.0882 193.535 59.5191 188.065 56.3771C169.567 45.7527 150.268 45.2209 129.315 48.1512C112.967 50.4373 96.7815 53.2628 80.5856 56.293C69.0164 58.4576 57.9167 60.8207 46.6092 63.8899C41.8921 65.1702 35.8068 66.0032 31.6063 68.371C26.3386 60.1092 21.0709 51.8474 15.8032 43.5855Z"/>
  <path id="shape2" transform="translate(265.633, 159.858)" fill="#2b00ff" d="M15.8232 24.8169C21.0976 33.0892 26.372 41.3615 31.6464 49.6338C29.1567 70.0113 31.1414 90.9102 32.437 111.268C34.0417 136.482 34.8401 161.743 36.289 186.963C36.9491 198.454 36.9799 210.722 38.9046 222.107C39.9565 228.33 40.2113 232.906 43.8499 237.517L13.2138 189.468C23.2139 196.377 36.3936 198.559 48.5551 200.37C62.9361 202.511 77.2498 201.996 91.7503 201.728C104.836 201.487 117.776 201.2 130.787 199.924C138.445 199.174 145.959 198.305 153.576 197.267C153.641 197.258 163.661 195.267 166.048 195.835C167.026 196.068 169.321 200.969 169.769 201.67C174.502 209.094 179.236 216.518 183.969 223.942C186.914 228.562 189.86 233.181 192.805 237.8C193.777 239.325 194.75 240.85 195.722 242.375C195.99 242.795 197.048 243.53 196.525 243.635C192.673 244.411 187.66 244.599 184.047 245.057C163.289 247.69 142.541 248.422 121.588 248.533C106.97 248.611 92.4869 248.977 78.0311 246.6C64.355 244.35 54.3393 244.094 43.8499 237.517L13.2138 189.468C7.85174 182.767 8.57155 171.81 8.09057 163.983C7.21948 149.807 6.40456 135.637 5.81144 121.448C4.80474 97.3637 3.56647 73.3494 1.95379 49.3033C0.85421 32.9079 1.56157 16.3723 9.45579e-15 7.31147e-15C2.07712 1.79881 3.41234 5.35185 4.79911 7.52684C8.47381 13.2902 12.1485 19.0535 15.8232 24.8169Z"/>
  <path id="shape3" transform="translate(398.027, 279.741)" fill="#2b00ff" d="M15.8232 24.8169C21.0976 33.0892 26.372 41.3615 31.6464 49.6338C30.447 59.2244 30.6832 69.1498 30.4951 78.7839C30.1489 96.5117 30.2208 114.24 30.2989 131.97C30.3553 144.785 30.4256 157.601 30.494 170.416C30.6431 198.352 30.9985 226.297 30.9824 254.233C30.9823 254.376 30.8245 253.985 30.7455 253.861C30.1929 252.995 29.6402 252.128 29.0875 251.261C28.4855 250.317 27.8835 249.373 27.2814 248.428C25.1299 245.054 22.9784 241.68 20.8269 238.305C16.2377 231.108 11.6485 223.91 7.05932 216.712C5.44183 214.175 1.33168 209.759 0.664039 206.682C0.207336 204.578 0.749546 198.667 0.756981 197.852C0.802931 192.813 0.865158 187.775 0.886927 182.736C1.2624 95.8246 -0.0197097 321.136 1.01388 148.05C1.17398 121.239 1.38148 94.4274 1.40382 67.6164C1.42242 45.2757 2.20083 22.3305 9.45579e-15 -2.04759e-14C2.0648 2.36692 3.49085 5.47498 5.14177 8.06427C8.70226 13.6485 12.2627 19.2327 15.8232 24.8169Z"/>
  <path id="shape4" transform="translate(479.69, 178.732)" fill="#b6ac04" d="M205.605 24.8169C210.879 33.0892 216.154 41.3615 221.428 49.6338C215.083 48.8811 207.974 48.8988 201.767 48.7918C187.847 48.5518 173.553 48.3247 159.805 50.6606C139.105 54.1776 119.204 61.7852 102.763 73.8317C94.393 79.9641 87.3035 87.5356 80.4791 95.0069C72.5561 103.681 65.116 112.148 59.029 121.935C53.8696 130.231 47.9279 138.487 44.3837 147.513C41.1519 155.742 37.6546 168.697 35.3811 177.163C27.5677 206.259 28.4766 234.865 39.2864 263.125C41.8398 269.8 46.5139 276.003 50.7058 281.909L20.599 234.69C26.9788 242.893 34.856 251.505 44.9305 256.051C55.5585 260.846 64.4006 261.161 76.553 262.446C101.404 265.072 126.487 261.302 148.318 250.054C155.765 246.217 165.821 241.912 171 235.353C174.573 230.828 176.935 225.96 179.088 220.833C179.278 220.381 179.621 221.669 179.888 222.088C180.856 223.606 181.824 225.124 182.792 226.642C185.725 231.242 188.657 235.841 191.59 240.44C195.894 247.191 200.198 253.942 204.503 260.693C205.88 262.852 207.256 265.011 208.633 267.171C208.9 267.589 209.547 267.954 209.433 268.425C208.662 271.622 206.53 275.263 204.968 277.977C203.127 281.175 201.846 283.548 199.055 285.93C193.369 290.784 185.465 294.325 178.663 297.645C156.53 308.447 132.314 313.049 107.27 310.622C95.0869 309.441 86.3502 309.237 75.7382 304.369C65.3062 299.584 57.2876 290.451 50.7058 281.909L20.599 234.69C8.67685 218.1 1.65082 199.024 0.156837 179.161C-0.366549 172.203 0.615977 160.684 1.13248 154.912C2.90759 135.074 7.39852 113.957 16.2944 95.5865C22.4772 82.819 31.1776 70.8283 40.2445 59.5942C49.8758 47.661 59.5807 35.5958 72.4663 26.3122C79.9027 20.9547 88.6139 16.4783 97.0968 12.6347C115.769 4.17448 137.78 1.89364 158.289 0.952394C168.709 0.474151 179.438 1.44553 189.782 1.78177e-14C195.056 8.27229 200.33 16.5446 205.605 24.8169Z"/>
  <path id="shape5" transform="translate(495.705, 307.572)" fill="#b6ac04" d="M15.8232 53.8716C10.5488 45.5993 5.27442 37.327 0 29.0547C4.59228 32.8572 8.84529 37.0472 14.5787 39.4584C35.7159 48.3475 63.1381 41.1322 82.7356 32.7621C87.1663 30.8697 91.1263 29.0158 95.5425 26.8831C97.7122 25.8352 110.499 19.4464 112.492 18.3932C120.37 14.2314 127.79 9.01402 135.199 4.28725C137.455 2.84765 139.245 0.236797 141.993 0C143.26 -0.109178 143.266 1.99608 143.902 2.99413C145.413 5.36448 146.925 7.73482 148.436 10.1052C154.322 19.3371 160.209 28.569 166.095 37.8008C166.466 38.3838 169.881 43.7399 170.629 44.9119C171.265 45.9099 173.176 46.9089 172.538 47.906C171.158 50.0623 167.869 50.5456 165.54 51.8743C157.851 56.2618 150.219 61.0566 142.353 65.2269C141.239 65.8177 126.77 73.1779 125.471 73.8189C107.583 82.6443 89.6419 89.3109 69.1569 90.501C61.9376 90.9205 54.544 90.8754 47.6708 88.5439C41.2877 86.3787 36.9151 82.3402 31.6464 78.6885C26.372 70.4162 21.0976 62.1439 15.8232 53.8716Z"/>
 </g>
</svg>
